<?xml version="1.0" standalone="no"?>
<?xml-stylesheet href="svgstyle.css" type="text/css"?>
<!DOCTYPE svg PUBLIC "-//W3C//DTD SVG 1.1//EN" 
  "http://www.w3.org/Graphics/SVG/1.1/DTD/svg11.dtd">

<svg height="450" width="530" viewBox="-40 -20 490 280"
     xmlns="http://www.w3.org/2000/svg"
     xmlns:xlink="http://www.w3.org/1999/xlink"
    >

<!--

$Id: stripchart.svg 707 2011-02-16 14:08:23Z radioecology $
(c) Morten Sickel February 2011 licenced under the GNU GPL 2 or later

-->
	
<g id="main" class="buttonactivate">
  <!-- Chart background. -->
  <rect x="0" y="0" width="420" height="230" stroke-width="2"
	fill="none" /> 
  
  <line x1="0" y1="0" x2="0" y2="230" stroke="black"/>
  
  <rect x="0" y="0" height="230" width="420" stroke="black" fill="none" />
  
  <!-- Label the X axis. -->
  <line x1="0" y1="0" x2="500" y2="0" stroke-width="5" />
  <g id="xlabels" transform="translate(0, 230)">
  </g>
  
  <!-- X axis grid lines. -->
  <line x1="0" y1="400" x2="500" y2="400" stroke-width="1" />
  <g id="xlines" transform="translate(0, 220)" 
    stroke-dasharray="3,3" >
  </g>

  
  
  <!-- Chart 1 line. -->
  <g id="loglines">
      <polyline id="temp1" fill="none" stroke="blue" stroke-width="1"  points="0,0 0,0" />
     <g id="leg1" visibility="hidden">
         <rect x="0" y="250" width="150" height="25"  linewidth="1" fill="none" stroke="none"/>
         <line x1="5" y1="262" x2="20" y2="262" stroke="blue" stroke-width="3" />
         <text x="25" y="266" font-family="Verdana" font-size="12">-</text>
      </g>
      <polyline id="temp2" fill="none" stroke="green" stroke-width="1" points="0,0 0,0" />
      <g id="leg2" visibility="hidden">
          <rect x="150" y="250" width="150" height="25"  linewidth="1" fill="none" stroke="none"/>
          <line x1="155" y1="262" x2="170" y2="262" stroke="green" stroke-width="3" />
          <text x="175" y="266" font-family="Verdana" font-size="12">-</text>
      </g>
      <polyline id="temp3" fill="none" stroke="red" stroke-width="1" points="0,0 0,0" />
      <g id="leg3"  visibility="hidden">
          <rect x="300" y="250" width="150" height="25"  linewidth="1" fill="none" stroke="none"/>
          <line x1="305" y1="262" x2="320" y2="262" stroke="red" stroke-width="3" />
          <text x="325" y="266" font-family="Verdana" font-size="12">-</text>
      </g>
      <polyline id="temp4" fill="none" stroke="gray" stroke-width="1" points="0,0 0,0" />
       <g  visibility="hidden">
         <rect x="0" y="275" width="150" height="25"  linewidth="1" fill="none" stroke="none"/>
         <line x1="5" y1="287" x2="20" y2="287" stroke="gray" stroke-width="3" />
         <text x="25" y="291" font-family="Verdana" font-size="12">-</text>
     </g>
      <polyline id="temp5" fill="none" stroke="yellow" stroke-width="1" points="0,0 0,0" />
      <g  visibility="hidden">
         <rect x="150" y="275" width="150" height="25"  linewidth="1" fill="none" stroke="none"/>
         <line x1="155" y1="287" x2="170" y2="287" stroke="yellow" stroke-width="3" />
         <text x="175" y="291" font-family="Verdana" font-size="12">-</text>
      </g>
      <polyline id="temp6" fill="none" stroke="orange" stroke-width="1" points="0,0 0,0" />
      <g  visibility="hidden">
         <rect x="300" y="275" width="150" height="25"  linewidth="1" fill="none" stroke="none"/>
         <line x1="305" y1="287" x2="320" y2="287" stroke="orange" stroke-width="3" />
         <text x="325" y="291" font-family="Verdana" font-size="12">-</text>
      </g>
      <!-- <polyline id="temp7" fill="none" stroke="gray" stroke-width="1" points="0,0 0,0" />
      <g  visibility="hidden">
         <rect x="0" y="250" width="150" height="25"  linewidth="1" fill="none" stroke="gray"/>
         <line x1="5" y1="262" x2="20" y2="262" stroke="black" stroke-width="1" />
         <text x="25" y="266" font-family="Verdana" font-size="12">-</text>
      </g>
      <polyline id="temp8" fill="none" stroke="green" stroke-width="1" points="0,0 0,0" />
      <g  visibility="hidden">
         <rect x="0" y="250" width="150" height="25"  linewidth="1" fill="none" stroke="green"/>
         <line x1="5" y1="262" x2="20" y2="262" stroke="black" stroke-width="1" />
         <text x="25" y="266" font-family="Verdana" font-size="12">-</text>
      </g>
      <polyline id="temp9" fill="none" stroke="green" stroke-width="1"     	   
                points="0,0 0,0" />
      -->

      </g>       <g id="horizlines"> </g>
  
</g>
<g id="xbox" class="invisible">
<rect x="0" y="0" width="10" height="10" stroke="black" stroke-width="0.5" fill="none" />
<line x1="0" y1="0" x2="10" y2="10" stroke="black" stroke-width="0.5" />
<line x1="10" y1="0" x2="0" y2="10" stroke="black" stroke-width="0.5" />



</g>
</svg>
