<?xml version="1.0" standalone="no"?>
<?xml-stylesheet href="svgstyle.css" type="text/css"?>
<!DOCTYPE svg PUBLIC "-//W3C//DTD SVG 1.1//EN" 
  "http://www.w3.org/Graphics/SVG/1.1/DTD/svg11.dtd">

<svg height="300" width="530" viewBox="-40 -20 490 280"
     xmlns="http://www.w3.org/2000/svg"
     xmlns:xlink="http://www.w3.org/1999/xlink"
    >

<!--

$Id: stripchart.svg 707 2011-02-16 14:08:23Z radioecology $
(c) Morten Sickel February 2011 licenced under the GNU GPL 2 or later

-->
	
<g id="main" class="buttonactivate">
  <!-- Chart background. -->
  <rect x="0" y="0" width="420" height="230" stroke-width="2"
	fill="none" /> 
  
  <line x1="0" y1="0" x2="0" y2="230" stroke="black"/>
  
  <rect x="0" y="0" height="230" width="420" stroke="black" fill="none" />
  
  <!-- Label the X axis. -->
  <line x1="0" y1="0" x2="500" y2="0" stroke-width="5" />
  <g id="xlabels" transform="translate(0, 230)">
  </g>
  
  <!-- X axis grid lines. -->
  <line x1="0" y1="400" x2="500" y2="400" stroke-width="1" />
  <g id="xlines" transform="translate(0, 220)" 
    stroke-dasharray="3,3" >
  </g>

  
  
  <!-- Chart 1 line. -->
  <g id="loglines">
      <polyline id="temp1" fill="none" stroke="blue" 
		stroke-width="1"     	   
                points="0,0 0,0" />
      
      <polyline id="temp2" fill="none" stroke="green" 
		stroke-width="1"     	   
                points="0,0 0,0" />
      <polyline id="temp3" fill="none" stroke="red" 
		stroke-width="1"     	   
                points="0,0 0,0" />
      <polyline id="temp4" fill="none" stroke="black" 
		stroke-width="1"     	   
                points="0,0 0,0" />
      <polyline id="temp5" fill="none" stroke="yellow" 
		stroke-width="1"     	   
                points="0,0 0,0" />
      <polyline id="temp6" fill="none" stroke="orange" 
		stroke-width="1"     	   
                points="0,0 0,0" />
      <polyline id="temp7" fill="none" stroke="gray" 
		stroke-width="1"     	   
                points="0,0 0,0" />
      <polyline id="temp8" fill="none" stroke="green" 
		stroke-width="1"     	   
                points="0,0 0,0" />
      <polyline id="temp9" fill="none" stroke="green" 
		stroke-width="1"     	   
                points="0,0 0,0" />
      </g>
      <g id="horizlines"> </g>
  
</g>
<g id="xbox" class="invisible">
<rect x="0" y="0" width="10" height="10" stroke="black" stroke-width="0.5" fill="none" />
<line x1="0" y1="0" x2="10" y2="10" stroke="black" stroke-width="0.5" />
<line x1="10" y1="0" x2="0" y2="10" stroke="black" stroke-width="0.5" />



</g>
</svg>
